<svg xmlns="http://www.w3.org/2000/svg" viewBox="0 0 494 513"><defs><style>.cls-1,.cls-3{fill:#009d4d;***REMOVED***.cls-2{fill:#8dc63f;***REMOVED***.cls-3{fill-rule:evenodd;***REMOVED***</style></defs><title>CTS Icon Only</title><g id="LAYER_1" data-name="LAYER 1"><path class="cls-1" d="M340.91,119.17c-7.21,1.31-22.07.26-29.26,1.65-6.86,1.32-20.57,5.2-26.49,8.9-5,3.14-13.46,11.9-16.65,16.89a56.27,56.27,0,0,0-6.21,16.52c-.61,4.15.85,12.57,1.18,16.75.25,3.18.2,9.64,1.08,12.71a40.3,40.3,0,0,0,3.19,7.23c21.29-22.66,39.09-47.68,86.63-78.43l-.76,1.73c-11,15.75-39.62,33.65-83.6,80,.74,1.23-31.31,34.16-31.31,34.16l-.21,4.24s36.93-35,37.36-34.79a50.86,50.86,0,0,0,9.69,4.1c5.69,1.53,17.7,1.7,23.54,1,5.13-.63,15.45-3.08,19.82-5.83s11.17-11.19,14.05-15.57c3.3-5,8.53-16,10-21.87,1.31-5.25.79-16.22,1.34-21.6.51-5,1.38-15,2.82-19.81,1.21-4,7.2-15.3,7.2-15.3S346.94,118.07,340.91,119.17Z"/><path class="cls-2" d="M247,476a120.66,120.66,0,0,1-67.14-220.9,8.5,8.5,0,0,1,9.48,14.12,103.64,103.64,0,1,0,115.33,0,8.5,8.5,0,1,1,9.48-14.12A120.65,120.65,0,0,1,247,476Z"/><path class="cls-1" d="M247,363.86c-4,0-8.5-6.79-8.5-16.54V91.18c0-6.55,0-16.54,8.5-16.54s8.5,11,8.5,16.54V347.32C255.5,357.07,251,363.86,247,363.86Z"/><path class="cls-1" d="M230.93,47.74c-.16,1.86-.59,2.42-.73,4.28a27.21,27.21,0,0,0,.38,7.09,18.13,18.13,0,0,0,2.88,5.16,38.29,38.29,0,0,0,3.08,3.47c.73.71,2.61,2.71,3.61,2.89a19.52,19.52,0,0,0,3,.52c.43,0,2.81-.69,2.81-.69l1.22-1.22h0a13.29,13.29,0,0,0,1.58-2.14c.72-1.31.46-3.85,0-6.29-.31-1.74-.77-4.4-1.09-5.46A17.23,17.23,0,0,0,245,50.92a22.86,22.86,0,0,0-4.47-3.82,10,10,0,0,0-2.24-.93,32.73,32.73,0,0,1-4.45-1.93,34.85,34.85,0,0,1-3.11-2.73S231.06,46.19,230.93,47.74Z"/><path class="cls-1" d="M244.61,43c-1.29,1.35-2,1.51-3.26,2.87a27.21,27.21,0,0,0-4.16,5.75,18.13,18.13,0,0,0-1,5.82,38.29,38.29,0,0,0,.22,4.63c.13,1,.33,3.75,1,4.52a19.52,19.52,0,0,0,2,2.32c.34.26,2.62,1.23,2.62,1.23l1.71-.18h0a13.29,13.29,0,0,0,2.57-.67c1.38-.56,2.77-2.71,4-4.88.85-1.55,2.17-3.91,2.58-4.93a17.23,17.23,0,0,0,.66-5.17,22.86,22.86,0,0,0-1.07-5.78,10,10,0,0,0-1.16-2.13,32.73,32.73,0,0,1-2.25-4.3,34.85,34.85,0,0,1-.71-4.08S245.69,41.88,244.61,43Z"/><path class="cls-3" d="M284.64,31.23s3.13,41.14-31.08,42.49c2.39-21.68,23.65-12.3,31.08-42.49Z"/></g></svg>