<?xml version="1.0" encoding="utf-8"?>
<!-- Generator: Adobe Illustrator 21.1.0, SVG Export Plug-In . SVG Version: 6.00 Build 0)  -->
<svg version="1.1" xmlns="http://www.w3.org/2000/svg" xmlns:xlink="http://www.w3.org/1999/xlink" x="0px" y="0px"
	 viewBox="0 0 878 463" style="enable-background:new 0 0 878 463;" xml:space="preserve">
<style type="text/css">
	.st0{fill:none;stroke:#8DC63F;stroke-width:10;stroke-miterlimit:10;***REMOVED***
	.st1{fill:#8DC63F;***REMOVED***
	.st2{fill:#FFFFFF;***REMOVED***
	.st3{fill:#FFFFFF;stroke:#FFFFFF;stroke-width:4;stroke-miterlimit:10;***REMOVED***
	.st4{fill:#009D4D;***REMOVED***
	.st5{fill-rule:evenodd;clip-rule:evenodd;fill:#009D4D;***REMOVED***
	.st6{fill-rule:evenodd;clip-rule:evenodd;fill:#8DC63F;***REMOVED***
</style>
<g id="BG">
</g>
<g id="LAYER_1">
	<g>
		<path class="st2" d="M104.8,51.6v20.9C94.6,64,84,59.7,73.1,59.7c-12,0-22.2,4.3-30.4,13c-8.3,8.6-12.4,19.1-12.4,31.5
			c0,12.3,4.1,22.6,12.4,31.1c8.3,8.4,18.4,12.7,30.5,12.7c6.2,0,11.5-1,15.8-3c2.4-1,4.9-2.4,7.5-4.1c2.6-1.7,5.3-3.8,8.2-6.2v21.3
			c-10.1,5.7-20.7,8.6-31.8,8.6c-16.7,0-31-5.8-42.8-17.5c-11.8-11.8-17.7-26-17.7-42.6c0-14.9,4.9-28.2,14.8-39.9
			C39.4,50.2,55.1,43,74.3,43C84.8,43,95,45.9,104.8,51.6z"/>
		<path class="st3" d="M168.5,137.1c0,14-11.1,25.4-24.6,25.4c-13.6,0-24.7-11.4-24.7-25.4c0-14,11.1-25.4,24.7-25.4
			C157.4,111.7,168.5,123.1,168.5,137.1z M164.8,137.1c0-11.8-9.4-21.4-20.9-21.4c-11.6,0-21,9.6-21,21.4c0,11.8,9.4,21.4,21,21.4
			C155.4,158.5,164.8,148.9,164.8,137.1z"/>
		<path class="st3" d="M185.9,130.7l0.1,31.6h-3.8v-49.7h3.8v10.2c0,0,2.5-3.5,5-5.5c3.9-3.1,8.6-4.9,13.4-4.9
			c7.7,0,14.7,4.3,18.8,11.4c1.9,3.2,3.1,6.9,3.4,10.7c0,1.7,0.2,5.6-0.1,27.8h-3.6l-0.1-29c-0.8-9-9.9-17.2-18.4-17.2
			C196,116,188.4,122.1,185.9,130.7z"/>
		<path class="st3" d="M239.8,156.1l1.7-2.9c3.6,3.3,7.6,5.5,14.6,5.6c6.5-0.1,10.9-4.4,10.9-10.7c0-8.3-7.9-10.1-11.1-10.3
			c-6.9-0.4-16.3-3.1-16.3-12.7c0-7.2,5.9-13.3,14-13.3c4.5,0,9.2,1.9,11.9,4.6l-1.9,3.4c-2.9-2.8-6-4.1-9.9-4.3
			c-5.2,0-10.4,3.5-10.4,9.6c0,6.6,5.7,8.9,11.3,9.2c7.5,0.4,16.1,5,16.1,13.8c0,8-6.5,14.2-14.6,14.2
			C249.4,162.2,242.9,159.9,239.8,156.1z"/>
		<path class="st3" d="M331.6,138.9h-45.3c1.8,13.2,11.7,19.6,20.9,19.6c3.7,0,7.6-1.3,10.8-3.1l6,0.1c-4.5,4.3-10.5,6.8-16.8,6.8
			c-13.5,0-24.5-11.3-24.5-25.3c0-13.9,11-25.3,24.5-25.3C320.9,111.7,331.3,123.6,331.6,138.9z M327.6,135.1
			c-2.6-13.1-11.3-19.7-20.5-19.7c-9.2,0-18.8,5.8-20.8,19.7H327.6z"/>
		<path class="st3" d="M366.3,115.8c-9,0.8-15.9,8.6-17.7,17.7v28.8h-3.4v-50.1h3.4v11.7c0,0,2.1-3.5,5.2-6.4
			c3.5-3.2,7.8-4.8,12.5-5.3V115.8z"/>
		<path class="st3" d="M418.6,112h4.3l-21.7,50.3L379.5,112h4.1l17.6,40l17.7-40H418.6z"/>
		<path class="st3" d="M473.7,162.3v-9.8l-5.2,4.3c-4.3,3.6-9.6,5.5-15.2,5.5c-13.3,0-24.1-11.2-24.1-24.9
			c0-13.8,10.8-24.9,24.1-24.9c5.6,0,10.9,1.9,15.2,5.5l5.2,4.3v-9.9h4.3v49.8H473.7z M473.2,135.2v-0.4
			c-1.4-10.5-9.6-17.8-19.9-17.8c-11.3,0-19.9,8.9-19.9,20.5s8.6,20.4,19.9,20.4c10.3,0,18.5-7.3,19.9-17.7V135.2z"/>
		<path class="st3" d="M520,120.3h-12.4v42.1h-4v-42.1h-12.5v-4.1h12.5V92.2h3.9l0.1,24.1H520V120.3z"/>
		<path class="st3" d="M533.3,94.9c0-1.3,1.1-2.3,2.3-2.3c1.3,0,2.3,1,2.3,2.3c0,1.2-1,2.2-2.3,2.2
			C534.4,97.1,533.3,96.1,533.3,94.9z M537.3,112.4v50.1h-4v-50.1H537.3z"/>
		<path class="st3" d="M600,137.1c0,14-11.1,25.4-24.6,25.4c-13.6,0-24.7-11.4-24.7-25.4c0-14,11.1-25.4,24.7-25.4
			C589,111.7,600,123.1,600,137.1z M596.3,137.1c0-11.8-9.4-21.4-20.9-21.4c-11.6,0-21,9.6-21,21.4c0,11.8,9.4,21.4,21,21.4
			C587,158.5,596.3,148.9,596.3,137.1z"/>
		<path class="st3" d="M617.4,130.7l0.1,31.6h-3.8v-49.7h3.8v10.2c0,0,2.5-3.5,5-5.5c3.9-3.1,8.6-4.9,13.4-4.9
			c7.7,0,14.7,4.3,18.8,11.4c1.9,3.2,3.1,6.9,3.4,10.7c0,1.7,0.2,5.6-0.1,27.8h-3.6l-0.1-29c-0.8-9-9.9-17.2-18.4-17.2
			C627.5,116,619.9,122.1,617.4,130.7z"/>
		<path class="st2" d="M76.8,201.6v100.5H59.1V201.6H32.2V185h71.4v16.6H76.8z"/>
		<path class="st3" d="M167.8,278.6h-45.3c1.8,13.2,11.7,19.6,20.9,19.6c3.7,0,7.6-1.3,10.8-3.1l6,0.1c-4.5,4.3-10.5,6.8-16.8,6.8
			c-13.5,0-24.5-11.3-24.5-25.3c0-13.9,11-25.3,24.5-25.3C157.1,251.5,167.5,263.4,167.8,278.6z M163.8,274.8
			c-2.6-13.1-11.3-19.7-20.5-19.7c-9.2,0-18.8,5.8-20.8,19.7H163.8z"/>
		<path class="st3" d="M219.9,255.5l-1.9,3.8c-3.4-2.2-7.3-3.3-11.4-3.3c-11.6,0-21,9.4-21,21c0,11.5,9.4,21,21,21
			c4.1,0,8.1-1.2,11.5-3.5l1.8,3.9c-4,2.5-8.6,3.8-13.3,3.8c-13.9,0-25.2-11.3-25.2-25.2c0-14,11.3-25.3,25.2-25.3
			C211.3,251.7,215.9,253,219.9,255.5z"/>
		<path class="st3" d="M237.4,270.4v31.6h-4.1V227h4.1v35.5c0,0,2.5-3.5,5-5.5c3.9-3.1,8.6-4.9,13.4-4.9c7.7,0,14.7,4.3,18.8,11.4
			c1.9,3.2,3.1,6.9,3.4,10.7c0,1.7,0.2,5.6-0.1,27.8H274v-29c-0.8-9-9.8-17.1-18.3-17.1C247.3,255.9,239.8,261.9,237.4,270.4z"/>
		<path class="st3" d="M294.9,270.4l0.1,31.6h-3.8v-49.7h3.8v10.2c0,0,2.5-3.5,5-5.5c3.9-3.1,8.6-4.9,13.4-4.9
			c7.7,0,14.7,4.3,18.8,11.4c1.9,3.2,3.1,6.9,3.4,10.7c0,1.7,0.2,5.6-0.1,27.8h-3.6l-0.1-29c-0.8-9-9.9-17.2-18.4-17.2
			C305,255.8,297.4,261.9,294.9,270.4z"/>
		<path class="st3" d="M398.2,276.8c0,14-11.1,25.4-24.6,25.4c-13.6,0-24.7-11.4-24.7-25.4c0-14,11.1-25.4,24.7-25.4
			C387.1,251.5,398.2,262.9,398.2,276.8z M394.5,276.8c0-11.8-9.4-21.4-20.9-21.4c-11.6,0-21,9.6-21,21.4c0,11.8,9.4,21.4,21,21.4
			C385.1,298.2,394.5,288.6,394.5,276.8z"/>
		<path class="st3" d="M415.7,226.9V302h-4.3v-75.1H415.7z"/>
		<path class="st3" d="M479,276.8c0,14-11.1,25.4-24.6,25.4c-13.6,0-24.7-11.4-24.7-25.4c0-14,11.1-25.4,24.7-25.4
			C467.9,251.5,479,262.9,479,276.8z M475.3,276.8c0-11.8-9.4-21.4-20.9-21.4c-11.6,0-21,9.6-21,21.4c0,11.8,9.4,21.4,21,21.4
			C465.9,298.2,475.3,288.6,475.3,276.8z"/>
		<path class="st3" d="M533.3,324.6c-4.4,3.4-9.5,5.2-15,5.2c-7.5,0-14.6-3.5-19.2-9.6l1.4-2.4v0.1l0.7-1.3
			c3.8,5.7,10.2,9.3,17.1,9.3c9.3,0,19.5-8.6,20.2-18.3v-7.9l-0.1-7.8l-5.3,4.4l-0.1,0.1c-4.4,3.5-9.6,5.4-15.2,5.4
			c-5.2,0-10.2-1.7-14.5-4.9c-2.7-2-4.9-4.5-6.6-7.5c-2.2-3.9-3.4-8.3-3.4-12.8c0-14,11-25.3,24.5-25.3c5.7,0,11,1.9,15.4,5.6
			l5.3,4.4v-10h3.9v53.2C542.4,312.4,539.3,319.7,533.3,324.6z M538.4,273.8c-1.3-10.6-10.2-18.5-20.6-18.5
			c-11.5,0-20.8,9.5-20.8,21.3c0,2.2,0.4,4.5,1.1,6.7c1.2,3.9,3.6,7.4,6.8,10c3.7,3,8.2,4.6,12.9,4.6c4.9,0,9.7-1.9,13.5-5.1
			c3.1-2.7,5.3-6.3,6.5-10.3c0.3-1.1,0.5-2.2,0.6-3.2V273.8z"/>
		<path class="st3" d="M581.1,296.2l-13.4,31.1h-4.5l12.6-29.2l-20-45.9h4.5l17.6,40l17.7-40h4.4L581.1,296.2z"/>
		<path class="st2" d="M101.3,342.2L87,350.7c-2.7-4.7-5.2-7.7-7.7-9.1c-2.5-1.6-5.8-2.4-9.8-2.4c-4.9,0-9,1.4-12.2,4.2
			c-3.2,2.7-4.9,6.2-4.9,10.3c0,5.7,4.2,10.3,12.7,13.8l11.7,4.8c9.5,3.8,16.5,8.5,20.8,14.1c4.4,5.5,6.6,12.3,6.6,20.4
			c0,10.8-3.6,19.7-10.8,26.7c-7.2,7.1-16.2,10.6-26.9,10.6c-10.2,0-18.5-3-25.2-9c-6.5-6-10.6-14.5-12.2-25.4l17.9-3.9
			c0.8,6.9,2.2,11.6,4.2,14.3c3.6,5.1,8.9,7.6,15.9,7.6c5.5,0,10.1-1.8,13.7-5.5s5.5-8.4,5.5-14c0-2.3-0.3-4.4-0.9-6.3
			c-0.6-1.9-1.6-3.6-3-5.2c-1.3-1.6-3.1-3.1-5.2-4.5c-2.1-1.4-4.7-2.7-7.6-4l-11.3-4.7c-16-6.8-24-16.7-24-29.7
			c0-8.8,3.4-16.1,10.1-22.1c6.7-6,15.1-8.9,25.1-8.9C83.2,322.5,93.8,329.1,101.3,342.2z"/>
		<path class="st3" d="M168.7,416.6c0,14-11.1,25.4-24.6,25.4c-13.6,0-24.7-11.4-24.7-25.4c0-14,11.1-25.4,24.7-25.4
			C157.6,391.2,168.7,402.6,168.7,416.6z M165,416.6c0-11.8-9.4-21.4-20.9-21.4c-11.6,0-21,9.6-21,21.4c0,11.8,9.4,21.4,21,21.4
			C155.6,437.9,165,428.4,165,416.6z"/>
		<path class="st3" d="M186.2,366.7v75.1h-4.3v-75.1H186.2z"/>
		<path class="st3" d="M200.4,418.1c-0.2-1.6-0.1-2.6,0.1-26.3h3.8v26.9c1,10.6,10.7,19,19.8,19c9,0,17.6-6.8,19.7-17.1v-28.7h3.8
			v49.9h-3.8v-10.7c0,0-2.8,3.4-5.4,5.5c-4.1,3.3-9.1,5.2-14.3,5.2c-8.2,0-15.7-4.5-20.1-12.1C202,426.2,200.7,422.2,200.4,418.1z"
			/>
		<path class="st3" d="M290,399.8h-12.4v42.1h-4v-42.1h-12.5v-4.1h12.5v-24.1h3.9l0.1,24.1H290V399.8z"/>
		<path class="st3" d="M303.3,374.4c0-1.3,1.1-2.3,2.3-2.3c1.3,0,2.3,1,2.3,2.3c0,1.2-1,2.2-2.3,2.2
			C304.4,376.6,303.3,375.6,303.3,374.4z M307.3,391.9V442h-4v-50.1H307.3z"/>
		<path class="st3" d="M370.1,416.6c0,14-11.1,25.4-24.6,25.4c-13.6,0-24.7-11.4-24.7-25.4c0-14,11.1-25.4,24.7-25.4
			C359,391.2,370.1,402.6,370.1,416.6z M366.4,416.6c0-11.8-9.4-21.4-20.9-21.4c-11.6,0-21,9.6-21,21.4c0,11.8,9.4,21.4,21,21.4
			C357,437.9,366.4,428.4,366.4,416.6z"/>
		<path class="st3" d="M387.5,410.2l0.1,31.6h-3.8v-49.7h3.8v10.2c0,0,2.5-3.5,5-5.5c3.9-3.1,8.6-4.9,13.4-4.9
			c7.7,0,14.7,4.3,18.8,11.4c1.9,3.2,3.1,6.9,3.4,10.7c0,1.7,0.2,5.6-0.1,27.8h-3.6l-0.1-29c-0.8-9-9.9-17.2-18.4-17.2
			C397.5,395.5,390,401.6,387.5,410.2z"/>
		<path class="st3" d="M441.4,435.5l1.7-2.9c3.6,3.3,7.6,5.5,14.6,5.6c6.5-0.1,10.9-4.4,10.9-10.7c0-8.3-7.9-10.1-11.1-10.3
			c-6.9-0.4-16.3-3.1-16.3-12.7c0-7.2,5.9-13.3,14-13.3c4.5,0,9.2,1.9,11.9,4.6l-1.9,3.4c-2.9-2.8-6-4.1-9.9-4.3
			c-5.2,0-10.4,3.5-10.4,9.6c0,6.6,5.7,8.9,11.3,9.2c7.5,0.4,16.1,5,16.1,13.8c0,8-6.5,14.2-14.6,14.2
			C450.9,441.7,444.5,439.3,441.4,435.5z"/>
	</g>
	<g>
		<g>
			<path class="st4" d="M840.9,96.2c-7.2,1.3-22.1,0.3-29.3,1.6c-6.9,1.3-20.6,5.2-26.5,8.9c-5,3.1-13.5,11.9-16.7,16.9
				c-2.4,3.7-5.6,12.2-6.2,16.5c-0.6,4.2,0.9,12.6,1.2,16.8c0.2,3.2,0.2,9.6,1.1,12.7c0.5,1.7,1.8,4.7,3.2,7.2
				c21.3-22.7,39.1-47.7,86.6-78.4l-0.8,1.7c-11,15.7-39.6,33.6-83.6,80c0.7,1.2-31.3,34.2-31.3,34.2l-0.2,4.2
				c0,0,36.9-35,37.4-34.8c3.4,1.8,7.2,3.4,9.7,4.1c5.7,1.5,17.7,1.7,23.5,1c5.1-0.6,15.4-3.1,19.8-5.8c4.4-2.8,11.2-11.2,14.1-15.6
				c3.3-5,8.5-16,10-21.9c1.3-5.2,0.8-16.2,1.3-21.6c0.5-5,1.4-15,2.8-19.8c1.2-4,7.2-15.3,7.2-15.3S846.9,95.1,840.9,96.2z"/>
			<g>
				<g>
					<path class="st1" d="M747,453c-66.5,0-120.7-54.1-120.7-120.7c0-40.3,20-77.8,53.5-100.2c1.4-0.9,3-1.4,4.7-1.4
						c2.9,0,5.5,1.4,7.1,3.8c1.3,1.9,1.7,4.2,1.3,6.4c-0.4,2.2-1.7,4.2-3.6,5.4c-28.8,19.3-46,51.5-46,86.1
						c0,57.1,46.5,103.6,103.6,103.6c57.2,0,103.6-46.5,103.6-103.6c0-34.6-17.2-66.8-46-86.1c-1.9-1.3-3.2-3.2-3.6-5.4
						c-0.4-2.2,0-4.5,1.3-6.4c1.6-2.4,4.2-3.8,7.1-3.8c1.7,0,3.3,0.5,4.7,1.4c33.5,22.5,53.5,60,53.5,100.2
						C867.6,398.9,813.5,453,747,453z"/>
					<path class="st4" d="M747,340.9c-4,0-8.5-6.8-8.5-16.5V68.2c0-6.6,0-16.5,8.5-16.5c8.5,0,8.5,11,8.5,16.5v256.1
						C755.5,334.1,751,340.9,747,340.9z"/>
				</g>
			</g>
		</g>
		<path class="st4" d="M730.9,24.7c-0.2,1.9-0.6,2.4-0.7,4.3c-0.1,1.8-0.1,5.4,0.4,7.1c0.4,1.4,1.9,4.1,2.9,5.2
			c0.7,0.8,1.5,1.9,3.1,3.5c0.7,0.7,2.6,2.7,3.6,2.9c0.8,0.1,2.3,0.5,3,0.5c0.4,0,2.8-0.7,2.8-0.7l1.2-1.2c0,0-0.1,0.1,0,0
			c0.6-0.7,1.3-1.6,1.6-2.1c0.7-1.3,0.5-3.8,0-6.3c-0.3-1.7-0.8-4.4-1.1-5.5c-0.4-1.3-1.9-3.5-2.7-4.4c-1-1.1-3.2-3.1-4.5-3.8
			c-1.1-0.7-1-0.5-2.2-0.9c-1.1-0.4-3.4-1.3-4.5-1.9c-0.9-0.6-3.1-2.7-3.1-2.7S731,23.2,730.9,24.7z"/>
		<path class="st4" d="M744.6,20c-1.3,1.3-2,1.5-3.3,2.9c-1.2,1.3-3.5,4.1-4.2,5.8c-0.6,1.4-1.1,4.4-1,5.8c0,1.1-0.1,2.4,0.2,4.6
			c0.1,1,0.3,3.8,1,4.5c0.5,0.6,1.4,1.9,2,2.3c0.3,0.3,2.6,1.2,2.6,1.2l1.7-0.2c0,0-0.1,0,0,0c1-0.2,2-0.4,2.6-0.7
			c1.4-0.6,2.8-2.7,4-4.9c0.9-1.6,2.2-3.9,2.6-4.9c0.5-1.2,0.7-3.9,0.7-5.2c0-1.5-0.5-4.4-1.1-5.8c-0.5-1.2-0.5-1-1.2-2.1
			c-0.6-1-1.9-3.1-2.3-4.3c-0.3-1-0.7-4.1-0.7-4.1S745.6,18.9,744.6,20z"/>
		<path class="st5" d="M784.6,8.2c0,0,3.1,41.1-31.1,42.5C755.9,29,777.2,38.4,784.6,8.2L784.6,8.2z"/>
	</g>
</g>
</svg>
