<svg xmlns="http://www.w3.org/2000/svg" viewBox="0 0 1327.6 861.7"><defs><style>.cls-1{fill:#231f20;***REMOVED***.cls-2,.cls-4{fill:#009d4d;***REMOVED***.cls-3{fill:#8dc63f;***REMOVED***.cls-4{fill-rule:evenodd;***REMOVED***</style></defs><title>CTS Logo</title><g id="LAYER_1" data-name="LAYER 1"><path class="cls-1" d="M326.4,214.24v20.93q-15.32-12.81-31.69-12.81a40.35,40.35,0,0,0-30.4,13q-12.44,12.89-12.43,31.54,0,18.42,12.43,31.08a41.06,41.06,0,0,0,30.48,12.66,37.39,37.39,0,0,0,15.85-3,45.66,45.66,0,0,0,7.54-4.09,89.12,89.12,0,0,0,8.23-6.22v21.3a63.8,63.8,0,0,1-31.84,8.57q-25.1,0-42.84-17.51A58.06,58.06,0,0,1,234.06,267a60.11,60.11,0,0,1,14.78-39.88q18.2-21.45,47.08-21.46A59.77,59.77,0,0,1,326.4,214.24Z"/><path class="cls-1" d="M390.12,299.75c0,14-11.08,25.35-24.56,25.35s-24.66-11.38-24.66-25.35S352,274.4,365.57,274.4,390.12,285.78,390.12,299.75Zm-3.69,0c0-11.78-9.38-21.36-20.86-21.36a21.37,21.37,0,0,0,0,42.72C377,321.12,386.43,311.53,386.43,299.75Z"/><path class="cls-1" d="M407.49,293.36l.1,31.64h-3.79V275.3h3.79v10.18a32.83,32.83,0,0,1,5-5.49A21.63,21.63,0,0,1,426,275.1c7.69,0,14.67,4.29,18.77,11.38a24.9,24.9,0,0,1,3.39,10.68c0,1.7.2,5.59-.1,27.75h-3.59l-.1-29c-.8-9-9.88-17.17-18.37-17.17S410,284.78,407.49,293.36Z"/><path class="cls-1" d="M461.39,318.72l1.7-2.89c3.59,3.29,7.59,5.49,14.57,5.59,6.49-.1,10.88-4.39,10.88-10.68,0-8.29-7.89-10.08-11.08-10.28-6.89-.4-16.27-3.09-16.27-12.68,0-7.19,5.89-13.28,14-13.28A17.66,17.66,0,0,1,487,279.09l-1.9,3.39a14.45,14.45,0,0,0-9.88-4.29c-5.19,0-10.38,3.49-10.38,9.58,0,6.59,5.69,8.88,11.28,9.18,7.49.4,16.07,5,16.07,13.78a14.26,14.26,0,0,1-14.57,14.18C471,324.91,464.48,322.51,461.39,318.72Z"/><path class="cls-1" d="M553.22,301.55H507.9c1.8,13.18,11.68,19.57,20.86,19.57A22.84,22.84,0,0,0,539.55,318l6,.1a24.32,24.32,0,0,1-16.77,6.79c-13.48,0-24.46-11.28-24.46-25.26s11-25.26,24.46-25.26C542.54,274.4,552.92,286.28,553.22,301.55Zm-4-3.79c-2.6-13.08-11.28-19.67-20.46-19.67S510,283.88,508,297.76Z"/><path class="cls-1" d="M587.86,278.49c-9,.8-15.87,8.58-17.67,17.67V325H566.8V274.9h3.39v11.68a33.6,33.6,0,0,1,5.19-6.39,21.32,21.32,0,0,1,12.48-5.29Z"/><path class="cls-1" d="M640.16,274.7h4.29L622.79,325,601.13,274.7h4.09l17.57,40,17.67-40Z"/><path class="cls-1" d="M695.27,325v-9.78l-5.19,4.29A23.43,23.43,0,0,1,674.9,325c-13.28,0-24.06-11.18-24.06-24.86s10.78-24.86,24.06-24.86a23.43,23.43,0,0,1,15.17,5.49l5.19,4.29V275.2h4.29V325Zm-.5-27.15v-.4c-1.4-10.48-9.58-17.77-19.87-17.77-11.28,0-19.86,8.88-19.86,20.46s8.58,20.36,19.86,20.36c10.28,0,18.47-7.29,19.87-17.67Z"/><path class="cls-1" d="M741.58,283H729.2v42.13h-4V283H712.73v-4.09h12.48V254.83h3.89l.1,24.06h12.38Z"/><path class="cls-1" d="M754.85,257.53a2.32,2.32,0,0,1,2.3-2.3,2.25,2.25,0,1,1,0,4.49A2.3,2.3,0,0,1,754.85,257.53Zm4,17.57v50.11h-4V275.1Z"/><path class="cls-1" d="M821.63,299.75c0,14-11.08,25.35-24.56,25.35s-24.66-11.38-24.66-25.35,11.08-25.35,24.66-25.35S821.63,285.78,821.63,299.75Zm-3.69,0c0-11.78-9.38-21.36-20.86-21.36a21.37,21.37,0,0,0,0,42.72C808.56,321.12,817.94,311.53,817.94,299.75Z"/><path class="cls-1" d="M839,293.36l.1,31.64H835.3V275.3h3.79v10.18a32.86,32.86,0,0,1,5-5.49,21.63,21.63,0,0,1,13.38-4.89c7.69,0,14.67,4.29,18.77,11.38a24.9,24.9,0,0,1,3.39,10.68c0,1.7.2,5.59-.1,27.75h-3.59l-.1-29c-.8-9-9.88-17.17-18.37-17.17S841.49,284.78,839,293.36Z"/><path class="cls-1" d="M298.37,364.3V464.75H280.71V364.3H253.79v-16.6h71.42v16.6Z"/><path class="cls-1" d="M389.38,441.29H344.06c1.8,13.18,11.68,19.57,20.86,19.57a22.84,22.84,0,0,0,10.78-3.09l6,.1a24.32,24.32,0,0,1-16.77,6.79c-13.48,0-24.46-11.28-24.46-25.26s11-25.25,24.46-25.25C378.69,414.14,389.08,426,389.38,441.29Zm-4-3.79c-2.6-13.08-11.28-19.67-20.46-19.67s-18.77,5.79-20.76,19.67Z"/><path class="cls-1" d="M441.48,418.14l-1.9,3.79a20.74,20.74,0,0,0-11.38-3.29,21,21,0,0,0,0,41.93,20.45,20.45,0,0,0,11.48-3.49l1.8,3.89a25.21,25.21,0,1,1,0-42.82Z"/><path class="cls-1" d="M458.95,433.11v31.64h-4.09V389.69h4.09v35.54a32.83,32.83,0,0,1,5-5.49,21.63,21.63,0,0,1,13.38-4.89c7.69,0,14.67,4.29,18.77,11.38a24.89,24.89,0,0,1,3.39,10.68c0,1.7.2,5.59-.1,27.75h-3.79v-29c-.8-9-9.78-17.07-18.27-17.07S461.44,424.52,458.95,433.11Z"/><path class="cls-1" d="M516.54,433.11l.1,31.64h-3.79V415h3.79v10.18a32.83,32.83,0,0,1,5-5.49A21.63,21.63,0,0,1,535,414.84c7.69,0,14.67,4.29,18.77,11.38a24.89,24.89,0,0,1,3.39,10.68c0,1.7.2,5.59-.1,27.75h-3.59l-.1-29c-.8-9-9.88-17.17-18.37-17.17S519,424.52,516.54,433.11Z"/><path class="cls-1" d="M619.75,439.5c0,14-11.08,25.36-24.56,25.36s-24.66-11.38-24.66-25.36,11.08-25.35,24.66-25.35S619.75,425.52,619.75,439.5Zm-3.69,0c0-11.78-9.38-21.36-20.86-21.36a21.37,21.37,0,0,0,0,42.72C606.68,460.86,616.06,451.28,616.06,439.5Z"/><path class="cls-1" d="M637.32,389.59v75.07H633V389.59Z"/><path class="cls-1" d="M700.61,439.5c0,14-11.08,25.36-24.56,25.36s-24.66-11.38-24.66-25.36,11.08-25.35,24.66-25.35S700.61,425.52,700.61,439.5Zm-3.69,0c0-11.78-9.38-21.36-20.86-21.36a21.37,21.37,0,0,0,0,42.72C687.53,460.86,696.91,451.28,696.91,439.5Z"/><path class="cls-1" d="M754.9,487.21a24.05,24.05,0,0,1-34.14-4.39l1.4-2.4v.1l.7-1.3a20.65,20.65,0,0,0,17.07,9.28c9.28,0,19.46-8.58,20.16-18.27v-7.89l-.1-7.79L754.71,459l-.1.1a24,24,0,0,1-29.65.5,23.8,23.8,0,0,1-6.59-7.49A26,26,0,0,1,715,439.3c0-14,11-25.25,24.46-25.25a23.52,23.52,0,0,1,15.37,5.59L760.1,424V414H764v53.21A25.36,25.36,0,0,1,754.9,487.21ZM760,436.5a20.73,20.73,0,0,0-41.33,2.79,22.35,22.35,0,0,0,1.1,6.69,20.86,20.86,0,0,0,6.79,10,20.34,20.34,0,0,0,12.88,4.59,21.12,21.12,0,0,0,13.48-5.09,21.88,21.88,0,0,0,6.49-10.28A19.88,19.88,0,0,0,760,442Z"/><path class="cls-1" d="M802.72,458.86,789.34,490h-4.49l12.58-29.25-20-45.92H782l17.57,40,17.67-40h4.39Z"/><path class="cls-1" d="M322.94,504.88l-14.33,8.49q-4-7-7.66-9.1a17.87,17.87,0,0,0-9.78-2.43A18.07,18.07,0,0,0,279,506a12.92,12.92,0,0,0-4.85,10.31q0,8.57,12.74,13.8l11.68,4.78q14.25,5.76,20.85,14.06t6.6,20.36q0,16.15-10.77,26.69T288.3,606.62q-15.24,0-25.17-9-9.78-9-12.21-25.4l17.89-3.94q1.21,10.31,4.25,14.25,5.46,7.58,15.92,7.58a18.48,18.48,0,0,0,13.72-5.53,19.15,19.15,0,0,0,5.46-14,19.7,19.7,0,0,0-.95-6.25,15.9,15.9,0,0,0-3-5.23,23.66,23.66,0,0,0-5.19-4.47,50.12,50.12,0,0,0-7.58-4l-11.3-4.7q-24-10.16-24-29.72a28.2,28.2,0,0,1,10.08-22.06q10.08-8.94,25.1-8.95Q311.57,485.16,322.94,504.88Z"/><path class="cls-1" d="M390.27,579.24c0,14-11.08,25.35-24.56,25.35s-24.66-11.38-24.66-25.35,11.08-25.36,24.66-25.36S390.27,565.27,390.27,579.24Zm-3.69,0c0-11.78-9.38-21.36-20.86-21.36a21.37,21.37,0,0,0,0,42.72C377.19,600.6,386.57,591,386.57,579.24Z"/><path class="cls-1" d="M407.83,529.33V604.4h-4.29V529.33Z"/><path class="cls-1" d="M422,580.74c-.2-1.6-.1-2.6.1-26.25h3.79v26.85c1,10.58,10.68,19,19.77,19s17.57-6.79,19.67-17.07V554.49h3.79V604.4h-3.79V593.72a46.13,46.13,0,0,1-5.39,5.49,22.8,22.8,0,0,1-14.27,5.19c-8.19,0-15.67-4.49-20.06-12.08A27.58,27.58,0,0,1,422,580.74Z"/><path class="cls-1" d="M511.64,562.47H499.26V604.6h-4V562.47H482.79v-4.09h12.48V534.32h3.89l.1,24.06h12.38Z"/><path class="cls-1" d="M524.92,537a2.32,2.32,0,0,1,2.3-2.3,2.25,2.25,0,1,1,0,4.49A2.3,2.3,0,0,1,524.92,537Zm4,17.57V604.7h-4V554.59Z"/><path class="cls-1" d="M591.7,579.24c0,14-11.08,25.35-24.56,25.35s-24.66-11.38-24.66-25.35,11.08-25.36,24.66-25.36S591.7,565.27,591.7,579.24Zm-3.69,0c0-11.78-9.38-21.36-20.86-21.36a21.37,21.37,0,0,0,0,42.72C578.62,600.6,588,591,588,579.24Z"/><path class="cls-1" d="M609.06,572.85l.1,31.64h-3.79V554.79h3.79V565a32.87,32.87,0,0,1,5-5.49,21.64,21.64,0,0,1,13.38-4.89c7.69,0,14.67,4.29,18.77,11.38a24.9,24.9,0,0,1,3.39,10.68c0,1.7.2,5.59-.1,27.75H646l-.1-29c-.8-9-9.88-17.17-18.37-17.17S611.56,564.27,609.06,572.85Z"/><path class="cls-1" d="M663,598.21l1.7-2.89c3.59,3.29,7.59,5.49,14.57,5.59,6.49-.1,10.88-4.39,10.88-10.68,0-8.29-7.89-10.08-11.08-10.28-6.89-.4-16.27-3.09-16.27-12.68,0-7.19,5.89-13.28,14-13.28a17.66,17.66,0,0,1,11.88,4.59l-1.9,3.39a14.45,14.45,0,0,0-9.88-4.29c-5.19,0-10.38,3.49-10.38,9.58,0,6.59,5.69,8.88,11.28,9.18,7.49.4,16.07,5,16.07,13.78a14.26,14.26,0,0,1-14.57,14.17C672.55,604.4,666.06,602,663,598.21Z"/><path class="cls-2" d="M1062.47,258.83c-7.21,1.31-22.07.26-29.26,1.65-6.86,1.32-20.57,5.2-26.49,8.9-5,3.14-13.46,11.9-16.65,16.89a56.27,56.27,0,0,0-6.21,16.52c-.61,4.15.85,12.57,1.18,16.75.25,3.18.2,9.64,1.08,12.71a40.3,40.3,0,0,0,3.19,7.23c21.29-22.66,39.09-47.68,86.63-78.43l-.76,1.73c-11,15.75-39.62,33.65-83.6,80,.74,1.23-31.31,34.16-31.31,34.16l-.21,4.24s36.93-35,37.36-34.79a50.86,50.86,0,0,0,9.69,4.1c5.69,1.53,17.7,1.7,23.54,1,5.13-.63,15.45-3.08,19.82-5.83s11.17-11.19,14.05-15.57c3.3-5,8.53-16,10-21.87,1.31-5.25.79-16.22,1.34-21.6.51-5,1.38-15,2.82-19.81,1.21-4,7.2-15.3,7.2-15.3S1068.5,257.73,1062.47,258.83Z"/><path class="cls-3" d="M968.55,615.67a120.66,120.66,0,0,1-67.14-220.9,8.5,8.5,0,0,1,9.48,14.12,103.64,103.64,0,1,0,115.33,0,8.5,8.5,0,1,1,9.48-14.12,120.65,120.65,0,0,1-67.15,220.9Z"/><path class="cls-2" d="M968.55,503.52c-4,0-8.5-6.79-8.5-16.54V230.84c0-6.55,0-16.54,8.5-16.54s8.5,11,8.5,16.54V487C977.05,496.73,972.57,503.52,968.55,503.52Z"/><path class="cls-2" d="M952.48,187.4c-.16,1.86-.59,2.42-.73,4.28a27.21,27.21,0,0,0,.38,7.09,18.13,18.13,0,0,0,2.88,5.16,38.29,38.29,0,0,0,3.08,3.47c.73.71,2.61,2.71,3.61,2.89a19.52,19.52,0,0,0,3,.52c.43,0,2.81-.69,2.81-.69l1.22-1.22h0a13.29,13.29,0,0,0,1.58-2.14c.72-1.31.46-3.85,0-6.29-.31-1.74-.77-4.4-1.09-5.46a17.23,17.23,0,0,0-2.74-4.44,22.86,22.86,0,0,0-4.47-3.82,10,10,0,0,0-2.24-.93,32.73,32.73,0,0,1-4.45-1.93,34.85,34.85,0,0,1-3.11-2.73S952.61,185.85,952.48,187.4Z"/><path class="cls-2" d="M966.16,182.67c-1.29,1.35-2,1.51-3.26,2.87a27.21,27.21,0,0,0-4.16,5.75,18.13,18.13,0,0,0-1,5.82,38.29,38.29,0,0,0,.22,4.63c.13,1,.33,3.75,1,4.52a19.52,19.52,0,0,0,2,2.32c.34.26,2.62,1.23,2.62,1.23l1.71-.18h0a13.29,13.29,0,0,0,2.57-.67c1.38-.56,2.77-2.71,4-4.88.85-1.55,2.17-3.91,2.58-4.93a17.23,17.23,0,0,0,.66-5.17A22.86,22.86,0,0,0,974,188.2a10,10,0,0,0-1.16-2.13,32.73,32.73,0,0,1-2.25-4.3,34.85,34.85,0,0,1-.71-4.08S967.24,181.54,966.16,182.67Z"/><path class="cls-4" d="M1006.19,170.89s3.13,41.14-31.08,42.49c2.39-21.68,23.65-12.3,31.08-42.49Z"/></g></svg>